<svg xmlns="http://www.w3.org/2000/svg" viewBox="0 0 24 24" width="24" height="24">
  <path fill="#1DA1F2" d="M22.46 5.5c-.823.364-1.705.61-2.628.724.946-.568 1.674-1.466 2.016-2.536-.886.524-1.867.905-2.918 1.111-.838-.894-2.028-1.45-3.347-1.45-2.536 0-4.593 2.057-4.593 4.593 0 .36.042.712.122 1.052-3.817-.192-7.187-2.02-9.447-4.798-.395.676-.622 1.46-.622 2.298 0 1.587.807 2.987 2.032 3.815-.748-.025-1.451-.23-2.07-.573v.057c0 2.216 1.573 4.064 3.655 4.485-.384.104-.788.16-1.205.16-.294 0-.58-.028-.863-.08.58 1.8 2.27 3.103 4.27 3.14-1.564 1.223-3.54 1.95-5.68 1.95-.37 0-.736-.022-1.097-.065 2.022 1.29 4.425 2.042 7.006 2.042 8.406 0 13.011-6.978 13.011-13.027 0-.198-.005-.394-.014-.589.893-.645 1.671-1.453 2.285-2.372z"/>
</svg>
