<svg xmlns="http://www.w3.org/2000/svg" viewBox="0 0 24 24" width="24" height="24">
  <path fill="#25D366" d="M21.986 4.757c-0.56-0.498-2.43-1.666-5.521-1.666-3.09 0-5.197 1.168-5.284 1.217l-0.358 0.179c-1.324 0.664-2.145 1.279-2.502 1.65s-0.776 0.865-0.842 1.479c-0.066 0.613-0.193 1.982 0.648 3.424 0.783 1.275 1.637 1.829 2.09 2.043 0.453 0.213 1.001 0.276 1.615-0.092 0.615-0.368 1.739-1.125 1.985-1.369 0.246-0.244 0.441-0.459 0.583-0.6s0.258-0.346 0.33-0.583c0.071-0.238 0.111-0.434 0.032-0.678s-0.17-0.384-0.353-0.575c-0.183-0.192-0.607-0.592-0.688-0.655-0.082-0.063-0.455-0.272-0.84-0.41-0.386-0.137-0.671-0.187-0.96-0.095-0.29 0.093-1.058 0.319-2.004 1.019-0.947 0.7-1.579 1.485-1.812 1.742-0.233 0.258-0.395 0.452-0.549 0.654s-0.314 0.377-0.527 0.604c-0.213 0.227-0.449 0.413-0.758 0.626-0.308 0.213-0.688 0.423-1.088 0.671-0.4 0.248-0.873 0.583-1.382 1.024-0.51 0.441-0.992 0.93-1.332 1.412-0.341 0.482-0.53 0.946-0.568 1.38-0.037 0.434 0.048 0.835 0.229 1.191s0.505 0.668 0.878 0.883c0.374 0.215 0.775 0.321 1.209 0.36s0.918-0.019 1.383-0.186c0.466-0.167 0.91-0.421 1.334-0.753 0.424-0.332 0.796-0.742 1.132-1.229 0.336-0.487 0.639-1.053 0.926-1.726s0.518-1.312 0.697-1.998c0.18-0.687 0.272-1.379 0.271-2.077s-0.141-1.418-0.416-2.066c-0.276-0.648-0.664-1.233-1.166-1.748-0.501-0.515-1.116-0.902-1.83-1.159-0.714-0.256-1.514-0.384-2.4-0.384-1.364 0-2.62 0.42-3.77 1.259-1.15 0.839-2.009 1.946-2.579 3.32-0.57 1.374-0.854 2.872-0.854 4.494 0 2.128 0.547 4.135 1.64 6.021 1.094 1.885 2.609 3.43 4.542 4.632 1.933 1.203 4.166 1.808 6.699 1.818 5.627-0.02 9.473-3.08 11.537-8.878 0.188-0.444 0.354-0.907 0.5-1.39 0.144-0.482 0.214-0.946 0.214-1.393 0.002-0.502-0.06-0.997-0.182-1.482z"/>
</svg>
